- 
http://www.Speed.Cd 
       
http://www.Speed.Cd      fast  and The Hottest Private Tracker on the net

(((--Submit for invite!!--)))

Please Seed back to make the speed Faster!!!

------------------nfo--------------------------
-[IMG]http://img823.imageshack.us/img823/4783/turnout2011.jpg[/IMG]


[color=blue][size=5][b]Turnout.2011.DVDRip.XVID.AC3.HQ.Hive-CM8[/b][/size][/color]


[b]Thx Hive

CM8 Doing It Right The First Time :D


Source: DVD-R Feature
thx

Encode:
DVD had good quality, added brightness, sharpness, rgb and denoise
got very nice
enjoy

Video: 720x384 @bitrate 1800 2pass
Audio: English AC3 5.1 @448
Sample: yes, included[/b]
 
http://www.imdb.com/title/tt1699520/


General
Complete name                    : Turnout.2011.DVDRip.XVID.AC3.HQ.Hive-CM8.avi
Format                           : AVI
Format/Info                      : Audio Video Interleave
File size                        : 1.47 GiB
Duration                         : 1h 33mn
Overall bit rate                 : 2 256 Kbps
Writing application              : Nandub v1.0rc2
Writing library                  : Nandub build 1853/release

Video
ID                               : 0
Format                           : MPEG-4 Visual
Format profile                   : Advanced Simple@L5
Format settings, BVOP            : 2
Format settings, QPel            : Yes
Format settings, GMC             : No warppoints
Format settings, Matrix          : Default (H.263)
Muxing mode                      : Packed bitstream
Codec ID                         : XVID
Codec ID/Hint                    : XviD
Duration                         : 1h 33mn
Bit rate                         : 1 798 Kbps
Width                            : 720 pixels
Height                           : 384 pixels
Display aspect ratio             : 1.875
Frame rate                       : 25.000 fps
Color space                      : YUV
Chroma subsampling               : 4:2:0
Bit depth                        : 8 bits
Scan type                        : Progressive
Compression mode                 : Lossy
Bits/(Pixel*Frame)               : 0.260
Stream size                      : 1.17 GiB (80%)
Writing library                  : XviD 1.2.1 (UTC 2008-12-04)

Audio
ID                               : 1
Format                           : AC-3
Format/Info                      : Audio Coding 3
Mode extension                   : CM (complete main)
Codec ID                         : 2000
Duration                         : 1h 33mn
Bit rate mode                    : Constant
Bit rate                         : 448 Kbps
Channel(s)                       : 6 channels
Channel positions                : Front: L C R, Side: L R, LFE
Sampling rate                    : 48.0 KHz
Bit depth                        : 16 bits
Compression mode                 : Lossy
Stream size                      : 299 MiB (20%)
Alignment                        : Split accross interleaves
Interleave, duration             : 40 ms (1.00 video frame)
Interleave, preload duration     : 500 ms


Plot:
An East London boy needs money fast to pay for a romantic holiday with his girlfriend.
He decides on an impromptu drug deal to raise the cash and he takes her holiday fund
and sinks it into his rash scheme.


Cast:
George Russo      ...   George
Ophelia Lovibond  ...   Sophie
Ricci Harnett     ...   Grant
Ben Drew          ...   John


[img]http://img403.imageshack.us/img403/6957/85978848.png[/img]
[img]http://img204.imageshack.us/img204/9954/tutuc.png[/img]
[img]http://img801.imageshack.us/img801/8103/tututu.png[/img]
[img]http://img15.imageshack.us/img15/1272/tutututu.png[/img]
[img]http://img534.imageshack.us/img534/435/tututututu.png[/img]
[img]http://img207.imageshack.us/img207/9166/tutututututu.png[/img]
[img]http://img43.imageshack.us/img43/1410/tututututututu.png[/img]



Greetz

ViSiON,SiC,SANTi,3LT0N,YanKeeS,MAGNET,THC,T0XiC,LKRG,FANTASIA-PLAY,FANTASIA-M,FLAWL3SS,
D2U,WBZ,BHRG,NOVA,Vik,Rapeseed,SAFC,goldadvance,MEMORY100,KaN1vE,Unevano,Pinnz,Wayne
Mr Hive,cedrict wink,and all P2P groups
Great Work Guys :D

LOOKING FOR ANYTHING YOU WANT TO LOOK AND SOUND BETTER

CM8@hushmail.com